<svg width="96" height="96" xmlns="http://www.w3.org/2000/svg" xmlns:xlink="http://www.w3.org/1999/xlink" xml:space="preserve" overflow="hidden"><g transform="translate(-403 -268)"><path d="M490.72 297.72C487.72 297.72 485.32 303.17 485.32 307.72 485.32 310.49 486.22 312.32 487.59 313.3 488.316 313.756 488.841 314.471 489.06 315.3L488.43 336.69C488.514 337.969 489.619 338.937 490.897 338.853 492.059 338.776 492.984 337.851 493.06 336.69L492.43 315.3C492.651 314.469 493.18 313.754 493.91 313.3 495.27 312.3 496.17 310.49 496.17 307.72 496.11 303.17 493.71 297.72 490.72 297.72Z"/><path d="M417.24 297.72 416.24 297.72 416.24 308.72C416.24 309.04 415.98 309.3 415.66 309.3 415.34 309.3 415.08 309.04 415.08 308.72L415.08 297.72 413.57 297.72 413.57 308.72C413.57 309.04 413.31 309.3 412.99 309.3 412.67 309.3 412.41 309.04 412.41 308.72L412.41 297.72 410.87 297.72 410.87 308.72C410.87 309.04 410.61 309.3 410.29 309.3 409.97 309.3 409.71 309.04 409.71 308.72L409.71 297.72 408.71 297.72C408.027 301.012 407.639 304.359 407.55 307.72 407.55 310.5 408.45 312.33 409.81 313.31 410.538 313.767 411.066 314.481 411.29 315.31L410.7 336.68C410.7 337.961 411.739 339 413.02 339 414.301 339 415.34 337.961 415.34 336.68L414.71 315.27C414.931 314.442 415.456 313.728 416.18 313.27 417.55 312.27 418.45 310.46 418.45 307.68 418.294 304.335 417.89 301.005 417.24 297.72Z"/><path d="M482.59 316.91 482.59 293.76C482.607 292.805 481.846 292.017 480.89 292 480.877 292 480.863 292 480.85 292 480.85 292 477.85 292.11 477.36 300.54L476.5 315.51C476.5 316.27 478.28 316.88 478.95 317.13L478.07 336.4C478.159 337.833 479.393 338.923 480.826 338.834 482.135 338.753 483.179 337.709 483.26 336.4Z"/><path d="M447 288C432.088 288 420 300.088 420 315 420 329.912 432.088 342 447 342 461.912 342 474 329.912 474 315 474 300.088 461.912 288 447 288ZM447 336C435.402 336 426 326.598 426 315 426 303.402 435.402 294 447 294 458.598 294 468 303.402 468 315 468 326.598 458.598 336 447 336Z"/><path d="M465 315C465 324.941 456.941 333 447 333 437.059 333 429 324.941 429 315 429 305.059 437.059 297 447 297 456.941 297 465 305.059 465 315Z"/></g></svg>