<svg width="96" height="96" xmlns="http://www.w3.org/2000/svg" xmlns:xlink="http://www.w3.org/1999/xlink" xml:space="preserve" overflow="hidden"><g transform="translate(-554 -264)"><path d="M602 319.35C602.23 318.88 602.48 318.42 602.73 317.97L601.27 317.97C601.52 318.42 601.77 318.88 602 319.35Z"/><path d="M610.85 294C610.735 293.463 610.208 293.119 609.67 293.23 608.81 293.41 607.91 293.57 606.99 293.69 606.438 293.726 606.019 294.203 606.055 294.755 606.091 295.307 606.568 295.726 607.12 295.69L607.25 295.69C608.25 295.56 609.18 295.4 610.08 295.2 610.62 295.087 610.967 294.557 610.854 294.016 610.852 294.011 610.851 294.005 610.85 294Z"/><path d="M610.85 298C610.735 297.463 610.208 297.119 609.67 297.23 608.81 297.41 607.91 297.57 606.99 297.69 606.438 297.726 606.019 298.203 606.055 298.755 606.091 299.307 606.568 299.726 607.12 299.69L607.25 299.69C608.25 299.56 609.18 299.4 610.08 299.2 610.62 299.087 610.967 298.557 610.854 298.016 610.852 298.011 610.851 298.005 610.85 298Z"/><path d="M610.85 302C610.735 301.463 610.208 301.119 609.67 301.23 608.81 301.41 607.91 301.57 606.99 301.69 606.438 301.726 606.019 302.203 606.055 302.755 606.091 303.307 606.568 303.726 607.12 303.69L607.25 303.69C608.25 303.56 609.18 303.4 610.08 303.2 610.62 303.087 610.967 302.557 610.854 302.016 610.852 302.011 610.851 302.005 610.85 302Z"/><path d="M610.85 290C610.735 289.463 610.208 289.119 609.67 289.23 608.81 289.41 607.91 289.57 606.99 289.69 606.438 289.726 606.019 290.203 606.055 290.755 606.091 291.307 606.568 291.726 607.12 291.69L607.25 291.69C608.25 291.56 609.18 291.4 610.08 291.2 610.62 291.087 610.967 290.557 610.854 290.016 610.852 290.011 610.851 290.005 610.85 290Z"/><path d="M606.13 310.8C606.197 311.279 606.597 311.641 607.08 311.66 607.78 310.84 608.52 310.04 609.29 309.29 608.55 309.44 607.78 309.57 606.99 309.68 606.444 309.753 606.059 310.254 606.13 310.8Z"/><path d="M604.06 315.71C604.15 315.56 604.25 315.42 604.35 315.27 604.391 315.161 604.411 315.046 604.41 314.93 604.41 314.378 603.962 313.93 603.41 313.93 602.51 313.93 601.58 313.93 600.68 313.93 600.128 313.93 599.68 314.378 599.68 314.93 599.682 315.066 599.706 315.201 599.75 315.33L599.98 315.67C600.157 315.851 600.397 315.959 600.65 315.97L602 316 603.44 316C603.674 315.979 603.894 315.877 604.06 315.71Z"/><path d="M610.85 306C610.735 305.463 610.208 305.119 609.67 305.23 608.81 305.41 607.91 305.57 606.99 305.69 606.438 305.726 606.019 306.203 606.055 306.755 606.091 307.307 606.568 307.726 607.12 307.69L607.25 307.69C608.25 307.56 609.18 307.4 610.08 307.2 610.62 307.087 610.967 306.557 610.854 306.016 610.852 306.011 610.851 306.005 610.85 306Z"/><path d="M597 289.68C596.08 289.56 595.18 289.41 594.33 289.22 593.778 289.104 593.236 289.458 593.12 290.01 593.004 290.562 593.358 291.104 593.91 291.22 594.81 291.41 595.77 291.58 596.74 291.7L596.87 291.7C597.422 291.736 597.899 291.317 597.935 290.765 597.971 290.213 597.552 289.736 597 289.7Z"/><path d="M597 297.68C596.08 297.56 595.18 297.41 594.33 297.22 593.778 297.104 593.236 297.458 593.12 298.01 593.004 298.562 593.358 299.104 593.91 299.22 594.81 299.41 595.77 299.58 596.74 299.7L596.87 299.7C597.422 299.736 597.899 299.317 597.935 298.765 597.971 298.213 597.552 297.736 597 297.7Z"/><path d="M597 305.68C596.08 305.56 595.18 305.41 594.33 305.22 593.778 305.104 593.236 305.458 593.12 306.01 593.004 306.562 593.358 307.104 593.91 307.22 594.81 307.41 595.77 307.58 596.74 307.7L596.87 307.7C597.422 307.736 597.899 307.317 597.935 306.765 597.971 306.213 597.552 305.736 597 305.7Z"/><path d="M597 301.68C596.08 301.56 595.18 301.41 594.33 301.22 593.778 301.104 593.236 301.458 593.12 302.01 593.004 302.562 593.358 303.104 593.91 303.22 594.81 303.41 595.77 303.58 596.74 303.7L596.87 303.7C597.422 303.736 597.899 303.317 597.935 302.765 597.971 302.213 597.552 301.736 597 301.7Z"/><path d="M597 293.68C596.08 293.56 595.18 293.41 594.33 293.22 593.778 293.104 593.236 293.458 593.12 294.01 593.004 294.562 593.358 295.104 593.91 295.22 594.81 295.41 595.77 295.58 596.74 295.7L596.87 295.7C597.422 295.736 597.899 295.317 597.935 294.765 597.971 294.213 597.552 293.736 597 293.7Z"/><path d="M591.5 305.52C591.69 305.007 591.431 304.436 590.92 304.24 590.164 303.96 589.428 303.626 588.72 303.24 588.79 302.69 588.88 302.15 588.96 301.6 589.36 301.79 589.78 301.96 590.22 302.13 590.332 302.171 590.451 302.191 590.57 302.19 591.122 302.181 591.562 301.725 591.553 301.173 591.546 300.769 591.296 300.409 590.92 300.26 590.371 300.053 589.833 299.816 589.31 299.55 589.41 298.99 589.53 298.44 589.64 297.89L590.22 298.13C590.332 298.171 590.451 298.191 590.57 298.19 591.122 298.181 591.562 297.725 591.553 297.173 591.546 296.769 591.296 296.409 590.92 296.26 590.63 296.15 590.36 296.03 590.09 295.91 590.23 295.33 590.38 294.75 590.53 294.19L590.53 294.19C590.945 294.187 591.315 293.929 591.46 293.54 591.62 293.084 591.43 292.579 591.01 292.34 591.615 290.359 592.337 288.416 593.17 286.52 593.275 286.861 593.553 287.12 593.9 287.2 594.8 287.39 595.76 287.56 596.73 287.68L596.86 287.68C597.412 287.716 597.889 287.297 597.925 286.745 597.961 286.193 597.542 285.716 596.99 285.68 596.07 285.56 595.17 285.41 594.32 285.22 594.113 285.182 593.9 285.21 593.71 285.3 594.03 284.63 594.36 283.97 594.71 283.3 595.37 283.42 596.04 283.53 596.71 283.62L596.84 283.62C597.392 283.656 597.869 283.237 597.905 282.685 597.941 282.133 597.522 281.656 596.97 281.62 596.56 281.57 596.16 281.5 595.76 281.44 596.17 280.78 596.6 280.17 597.04 279.57 597.518 279.526 597.871 279.103 597.827 278.624 597.825 278.606 597.823 278.588 597.82 278.57 598.3 277.99 598.82 277.43 599.29 276.92 600.803 275.582 603.077 275.582 604.59 276.92 605.1 277.43 605.59 277.99 606.08 278.58 606.075 278.63 606.075 278.68 606.08 278.73 606.14 279.139 606.446 279.469 606.85 279.56 607.29 280.15 607.72 280.77 608.13 281.43L607 281.68C606.448 281.716 606.029 282.193 606.065 282.745 606.101 283.297 606.578 283.716 607.13 283.68L607.26 283.68C607.94 283.59 608.61 283.48 609.26 283.36 609.61 283.98 609.94 284.64 610.26 285.31 610.08 285.222 609.876 285.197 609.68 285.24 608.82 285.42 607.92 285.58 607 285.7 606.448 285.736 606.029 286.213 606.065 286.765 606.101 287.317 606.578 287.736 607.13 287.7L607.26 287.7C608.26 287.57 609.19 287.41 610.09 287.21 610.426 287.132 610.698 286.886 610.81 286.56 611.652 288.435 612.383 290.359 613 292.32 612.587 292.565 612.407 293.069 612.57 293.52 612.715 293.909 613.085 294.167 613.5 294.17L613.5 294.17C613.66 294.74 613.8 295.32 613.94 295.9 613.67 296.01 613.42 296.13 613.13 296.24 612.611 296.428 612.343 297.002 612.531 297.521 612.676 297.92 613.056 298.184 613.48 298.18 613.6 298.178 613.719 298.154 613.83 298.11 614.03 298.04 614.2 297.95 614.39 297.88 614.51 298.433 614.62 298.983 614.72 299.53 614.203 299.796 613.673 300.033 613.13 300.24 612.611 300.428 612.343 301.002 612.531 301.521 612.676 301.92 613.056 302.184 613.48 302.18 613.6 302.178 613.719 302.154 613.83 302.11 614.27 301.95 614.68 301.77 615.07 301.59 615.16 302.13 615.24 302.68 615.31 303.23 614.61 303.618 613.881 303.952 613.13 304.23 612.616 304.433 612.365 305.014 612.568 305.528 612.669 305.785 612.873 305.988 613.13 306.09 615.052 304.69 617.113 303.49 619.28 302.51 617.6 290.42 613.4 280.07 607.47 274.15 604.393 271.267 599.607 271.267 596.53 274.15 590.6 280.07 586.4 290.42 584.77 302.51 586.932 303.497 588.989 304.7 590.91 306.1 591.187 306.011 591.406 305.796 591.5 305.52Z"/><path d="M603.38 310C602.48 310 601.55 310 600.65 310 600.098 310 599.65 310.448 599.65 311 599.65 311.552 600.098 312 600.65 312L602 312 603.44 312C603.992 312 604.44 311.552 604.44 311 604.441 310.448 603.994 309.999 603.442 309.998 603.421 309.998 603.401 309.999 603.38 310Z"/><path d="M594.7 309.29C595.47 310.05 596.21 310.84 596.92 311.67 597.472 311.7 597.945 311.277 597.975 310.725 598.005 310.173 597.582 309.7 597.03 309.67 596.23 309.58 595.45 309.44 594.7 309.29Z"/><path d="M603.38 306C602.48 306 601.55 306 600.65 306 600.098 305.981 599.634 306.413 599.615 306.965 599.596 307.517 600.028 307.981 600.58 308L602 308 603.44 308C603.992 307.983 604.427 307.522 604.41 306.97 604.393 306.418 603.932 305.983 603.38 306Z"/><path d="M603.38 286C602.48 286 601.55 286 600.65 286 600.098 285.981 599.634 286.413 599.615 286.965 599.596 287.517 600.028 287.981 600.58 288L602 288 603.44 288C603.992 287.983 604.427 287.522 604.41 286.97 604.393 286.418 603.932 285.983 603.38 286Z"/><path d="M603.38 282C602.48 282 601.55 282 600.65 282 600.098 281.981 599.634 282.413 599.615 282.965 599.596 283.517 600.028 283.981 600.58 284L602 284 603.44 284C603.992 284 604.44 283.552 604.44 283 604.441 282.448 603.994 281.999 603.442 281.998 603.421 281.998 603.401 281.999 603.38 282Z"/><path d="M603.41 278 603.41 278C602.51 278 601.58 278 600.68 278 600.128 278 599.68 278.448 599.68 279 599.68 279.552 600.128 280 600.68 280L602 280 603.44 280C603.992 280 604.44 279.552 604.44 279 604.44 278.448 603.993 278 603.44 278 603.43 278 603.42 278 603.41 278Z"/><path d="M603.38 290C602.48 290 601.55 290 600.65 290 600.098 290 599.65 290.448 599.65 291 599.65 291.552 600.098 292 600.65 292L602 292 603.44 292C603.992 292 604.44 291.552 604.44 291 604.441 290.448 603.994 289.999 603.442 289.998 603.421 289.998 603.401 289.999 603.38 290Z"/><path d="M603.38 294C602.48 294 601.55 294 600.65 294 600.098 293.981 599.634 294.413 599.615 294.965 599.596 295.517 600.028 295.981 600.58 296L602 296 603.44 296C603.992 295.983 604.427 295.522 604.41 294.97 604.393 294.418 603.932 293.983 603.38 294Z"/><path d="M603.38 302C602.48 302 601.55 302 600.65 302 600.098 301.981 599.634 302.413 599.615 302.965 599.596 303.517 600.028 303.981 600.58 304L602 304 603.44 304C603.992 304 604.44 303.552 604.44 303 604.441 302.448 603.994 301.999 603.442 301.998 603.421 301.998 603.401 301.999 603.38 302Z"/><path d="M603.38 298C602.48 298 601.55 298 600.65 298 600.098 297.981 599.634 298.413 599.615 298.965 599.596 299.517 600.028 299.981 600.58 300L602 300 603.44 300C603.992 299.983 604.427 299.522 604.41 298.97 604.393 298.418 603.932 297.983 603.38 298Z"/><path d="M627.44 304C613.59 307 603.84 318.07 602 333.4 600.15 318.13 590.38 307 576.56 304 571.1 302.74 565.64 302.74 562 306.38 562 306.38 577.78 306.88 577.78 325.49 577.78 336.26 584.78 343.38 592.34 344.6 593.228 344.756 594.128 344.833 595.03 344.83L595.72 344.83C596.059 348.298 599.146 350.835 602.615 350.495 605.614 350.202 607.987 347.829 608.28 344.83L609 344.83C609.902 344.833 610.802 344.756 611.69 344.6 619.3 343.38 626.25 336.26 626.25 325.49 626.22 306.88 642 306.38 642 306.38 638.36 302.74 632.9 302.74 627.44 304Z"/></g></svg>